<?xml version="1.0" encoding="utf-8"?>
<!-- Generator: Adobe Illustrator 23.0.6, SVG Export Plug-In . SVG Version: 6.00 Build 0)  -->
<svg version="1.1" xmlns="http://www.w3.org/2000/svg" xmlns:xlink="http://www.w3.org/1999/xlink" x="0px" y="0px"
	 viewBox="0 0 1200 1200" style="enable-background:new 0 0 1200 1200;" xml:space="preserve">
<style type="text/css">
	.st0{display:none;}
	.st1{display:inline;}
	.st2{fill:#201714;}
</style>
<g id="_x28_C_x29_yogiriri" class="st0">
	<g class="st1">
		<path d="M543.57,1077.5c-3.51,4.17-5.77,7.76-6.8,10.76c-1.16,3.08-1.74,6.57-1.74,10.47c0,4.27,0.74,8.18,2.23,11.76
			c1.09,2.42,3.19,5.57,6.3,9.48h-2.98c-3.27-3.84-5.47-7.31-6.6-10.42c-1.29-3.41-1.93-7.01-1.93-10.81c0-3.6,0.61-7.06,1.84-10.37
			c1.06-3.08,3.29-6.7,6.7-10.86H543.57z"/>
		<path d="M561.48,1078.74c1.98,0,3.74,0.46,5.26,1.39c1.29,0.69,2.35,1.74,3.17,3.13c0.99,1.62,1.75,3.92,2.28,6.89h-2.98
			c-0.63-3.11-1.6-5.31-2.93-6.6c-1.29-1.22-2.89-1.83-4.81-1.83c-2.02,0-3.64,0.6-4.86,1.79c-1.36,1.32-2.3,2.94-2.83,4.86
			c-0.76,2.55-1.14,5.42-1.14,8.63c0,3.11,0.36,5.97,1.09,8.58c0.69,2.45,1.7,4.27,3.03,5.46c1.22,1.13,2.64,1.69,4.27,1.69
			c2.31,0,4.22-0.86,5.7-2.58c1.46-1.72,2.28-4.53,2.48-8.43h2.98c-0.23,3.47-0.76,6.05-1.59,7.74c-1.06,2.02-2.4,3.57-4.02,4.67
			c-1.59,1.06-3.44,1.59-5.56,1.59c-2.38,0-4.43-0.79-6.15-2.38c-1.75-1.62-3.03-3.64-3.82-6.05c-0.93-2.88-1.39-6.3-1.39-10.27
			c0.03-3.9,0.51-7.16,1.44-9.77c0.93-2.55,2.2-4.53,3.82-5.95C556.82,1079.59,559,1078.74,561.48,1078.74z"/>
		<path d="M581.47,1077.5c3.34,4,5.61,7.71,6.8,11.11c1.16,3.14,1.74,6.52,1.74,10.12c0,3.9-0.61,7.49-1.84,10.76
			c-1.16,3.08-3.39,6.57-6.7,10.47h-2.98c2.55-3.21,4.58-6.32,6.1-9.33c1.62-3.57,2.43-7.54,2.43-11.9c0-3.94-0.61-7.44-1.83-10.52
			c-1.16-2.94-3.39-6.52-6.7-10.72H581.47z"/>
		<path d="M635.99,1114.92v-1.74h-25.1v-2.98h25.1v-10.72h-25.1v-2.98h25.1v-10.35h-25.1v-2.98h28.08v31.75H635.99z"/>
		<path d="M667.1,1118.88l-2.93,0.45l-2.08-16.92l-16.22,2.38l-0.25-2.93l16.12-2.38l-1.04-8.48l-12.35,1.79l-0.35-2.93l12.35-1.78
			l-1.14-9.72l2.93-0.35l1.14,9.67l13.69-2.04l0.45,2.93l-13.79,2.03l0.99,8.43l17.66-2.63l0.55,2.93l-17.81,2.63L667.1,1118.88z
			 M681.48,1083.75l-1.94,1.83c-1.36-2.15-2.99-4.08-4.91-5.8l1.74-1.44C678.46,1080.23,680.16,1082.03,681.48,1083.75z
			 M685.75,1080.13l-1.94,1.83c-1.46-2.18-3.09-4.04-4.91-5.56l1.74-1.54C682.52,1076.56,684.23,1078.31,685.75,1080.13z"/>
		<path d="M694,1080.83v22.77h-2.98v-22.77H694z M713.69,1077.7v19.84c-0.03,3.04-0.6,5.9-1.69,8.58c-0.99,2.48-2.35,4.66-4.07,6.55
			c-1.88,2.08-5.03,4.38-9.43,6.9c-0.63-0.86-1.24-1.64-1.84-2.33c3.84-1.82,6.67-3.69,8.48-5.61c1.65-1.72,2.89-3.54,3.72-5.46
			c1.26-2.84,1.87-5.72,1.84-8.63v-19.84H713.69z"/>
		<path d="M724.16,1080.83v22.77h-2.98v-22.77H724.16z M743.85,1077.7v19.84c-0.03,3.04-0.6,5.9-1.69,8.58
			c-0.99,2.48-2.35,4.66-4.07,6.55c-1.89,2.08-5.03,4.38-9.43,6.9c-0.63-0.86-1.24-1.64-1.84-2.33c3.84-1.82,6.67-3.69,8.48-5.61
			c1.65-1.72,2.89-3.54,3.72-5.46c1.26-2.84,1.87-5.72,1.84-8.63v-19.84H743.85z"/>
		<path d="M830.16,1078.74v12.45c0.07-0.13,0.15-0.22,0.25-0.25c1.82-2.25,4.28-3.37,7.39-3.37c2.35,0,4.38,0.96,6.1,2.88
			c1.69,1.99,2.53,4.73,2.53,8.23v17.02h-2.98v-17.02c0-2.75-0.55-4.78-1.64-6.1c-1.29-1.36-2.94-2.03-4.96-2.03
			c-1.92,0-3.49,0.84-4.71,2.53c-1.13,1.56-1.79,3.57-1.98,6.05v16.57h-2.98v-36.96H830.16z"/>
		<path d="M860.09,1108.85c0.03,1.65,0.26,2.7,0.69,3.13c0.46,0.5,1.16,0.75,2.09,0.75c1.06,0,2.13-0.12,3.22-0.35v2.98
			c-1.06,0.23-2.13,0.35-3.22,0.35c-1.95,0-3.38-0.46-4.27-1.39c-0.99-1.12-1.49-2.94-1.49-5.46v-18.3h-3.52v-2.98h3.52v-8.83h2.98
			v8.83h6v2.98h-6V1108.85z"/>
		<path d="M879.14,1108.85c0.03,1.65,0.26,2.7,0.69,3.13c0.46,0.5,1.16,0.75,2.08,0.75c1.06,0,2.13-0.12,3.22-0.35v2.98
			c-1.06,0.23-2.13,0.35-3.22,0.35c-1.95,0-3.37-0.46-4.27-1.39c-0.99-1.12-1.49-2.94-1.49-5.46v-18.3h-3.52v-2.98h3.52v-8.83h2.98
			v8.83h6v2.98h-6V1108.85z"/>
		<path d="M895.75,1087.57v4.27c0.16-0.23,0.32-0.45,0.45-0.64c1.72-2.41,3.99-3.62,6.8-3.62c3.27,0.03,5.72,1.26,7.34,3.67
			c1.95,2.84,2.93,6.37,2.93,10.57c0,4.56-1.16,8.15-3.47,10.76c-1.75,2.08-4.02,3.13-6.8,3.13c-2.91-0.03-5.21-1.26-6.89-3.67
			c-0.13-0.2-0.25-0.36-0.35-0.5v12.3h-2.98v-36.26H895.75z M897.93,1093.38c-1.26,1.72-1.98,4.02-2.18,6.9c0,0.5,0,1.01,0,1.54
			s0,1.06,0,1.59c0.23,2.88,0.96,5.16,2.18,6.85c1.26,1.65,2.94,2.48,5.06,2.48c2.05,0,3.74-0.81,5.06-2.43
			c1.49-1.75,2.23-4.58,2.23-8.48c0-3.37-0.75-6.2-2.23-8.48c-1.19-1.85-2.88-2.78-5.06-2.78
			C900.94,1090.55,899.26,1091.49,897.93,1093.38z"/>
		<path d="M925.16,1083.51v5.11h-5.11v-5.11H925.16z M925.16,1108.91v5.11h-5.11v-5.11H925.16z"/>
		<path d="M953.83,1077.5l-18.26,42.46h-2.98l18.26-42.46H953.83z"/>
		<path d="M981.61,1077.5l-18.26,42.46h-2.98l18.25-42.46H981.61z"/>
		<path d="M990.74,1087.57l8.53,22.87l7.74-22.87h2.68l-9.57,28.48c-1.16,3.54-2.25,5.77-3.27,6.7c-0.93,0.73-1.89,1.09-2.88,1.09
			c-1.35,0-2.48-0.22-3.37-0.65v-2.68c0.86,0.6,1.85,0.91,2.98,0.94c1.55-0.03,2.85-1.83,3.87-5.41l0.64-2.03l-10.02-26.44H990.74z"
			/>
		<path d="M1018.22,1093.77c0.83-1.72,2.03-3.24,3.62-4.56c1.42-1.09,3.19-1.64,5.31-1.64c2.05,0,3.79,0.5,5.21,1.49
			c1.62,1.12,2.89,2.7,3.82,4.71c0.93,1.95,1.39,4.63,1.39,8.04c-0.03,2.91-0.42,5.28-1.14,7.09c-0.83,2.12-1.93,3.69-3.32,4.71
			c-1.75,1.39-3.79,2.08-6.1,2.08c-2.08,0-3.94-0.61-5.56-1.83c-1.46-1.06-2.6-2.55-3.42-4.47c-0.89-2.12-1.34-4.73-1.34-7.84
			C1016.68,1098.59,1017.2,1095.99,1018.22,1093.77z M1020.75,1095.06c-0.73,1.65-1.09,3.82-1.09,6.5c0.03,2.58,0.36,4.68,0.99,6.3
			c0.66,1.52,1.5,2.7,2.53,3.52c1.06,0.89,2.33,1.34,3.82,1.34c1.82-0.03,3.29-0.51,4.41-1.44c1.09-0.96,1.89-2.15,2.38-3.57
			c0.53-1.55,0.79-3.52,0.79-5.9c0-2.88-0.35-5.03-1.04-6.45c-0.69-1.55-1.55-2.74-2.58-3.57c-1.12-0.83-2.4-1.24-3.82-1.24
			c-1.59,0-2.89,0.4-3.92,1.19C1022.21,1092.53,1021.38,1093.64,1020.75,1095.06z"/>
		<path d="M1054.29,1087.57c2.68,0,4.98,1.24,6.89,3.72v-3.72h2.98v20.04c-0.03,5.49-0.46,9.14-1.29,10.96
			c-0.86,1.85-1.99,3.17-3.37,3.97c-1.49,0.86-3.39,1.29-5.71,1.29c-2.54,0-4.53-0.6-5.95-1.79c-1.59-1.32-2.55-3.44-2.88-6.35h2.98
			c0.3,1.62,0.86,2.88,1.69,3.77c0.89,0.93,2.28,1.39,4.17,1.39c2.48,0,4.33-0.7,5.56-2.08c1.19-1.29,1.8-3.64,1.83-7.04
			c0-0.59,0-1.16,0-1.69c-1.88,2.68-4.18,4.02-6.89,4.02c-2.81,0-5.11-1.16-6.9-3.47c-1.92-2.51-2.88-5.67-2.88-9.47
			c0.03-4,0.96-7.26,2.78-9.77C1049.15,1088.83,1051.48,1087.57,1054.29,1087.57z M1049.47,1093.48c-1.32,1.88-1.98,4.43-1.98,7.64
			c0,3.17,0.65,5.62,1.93,7.34c1.32,1.75,2.94,2.63,4.86,2.63c2.05,0,3.64-0.81,4.76-2.43c1.42-1.92,2.13-4.43,2.13-7.54
			c0-3.47-0.66-6.07-1.98-7.79c-1.39-1.85-3.03-2.78-4.91-2.78C1052.4,1090.58,1050.8,1091.56,1049.47,1093.48z"/>
		<path d="M1074.84,1078.74v4.79h-2.98v-4.79H1074.84z M1074.84,1087.92v27.78h-2.98v-27.78H1074.84z"/>
		<path d="M1085.34,1087.57v6.55c0.63-1.32,1.6-2.73,2.93-4.22c1.55-1.79,3.89-2.66,7-2.63c0.83,0,1.6,0.22,2.33,0.64v2.98
			c-0.86-0.43-1.64-0.64-2.33-0.64c-2.58,0-4.63,0.66-6.15,1.98c-1.59,1.32-2.85,3.17-3.77,5.56v17.91h-2.98v-28.13H1085.34z"/>
		<path d="M1108.18,1078.74v4.79h-2.98v-4.79H1108.18z M1108.18,1087.92v27.78h-2.98v-27.78H1108.18z"/>
		<path d="M1118.67,1087.57v6.55c0.63-1.32,1.6-2.73,2.93-4.22c1.55-1.79,3.89-2.66,7-2.63c0.83,0,1.6,0.22,2.33,0.64v2.98
			c-0.86-0.43-1.64-0.64-2.33-0.64c-2.58,0-4.63,0.66-6.15,1.98c-1.59,1.32-2.84,3.17-3.77,5.56v17.91h-2.98v-28.13H1118.67z"/>
		<path d="M1141.51,1078.74v4.79h-2.98v-4.79H1141.51z M1141.51,1087.92v27.78h-2.98v-27.78H1141.51z"/>
		<path d="M1154.84,1108.91v5.11h-5.11v-5.11H1154.84z"/>
		<path d="M1179.35,1097.74c-0.3-2.18-0.99-3.94-2.08-5.26c-1.12-1.29-2.63-1.93-4.51-1.93c-2.22,0-3.93,1.11-5.16,3.32
			c-1.49,2.65-2.23,5.47-2.23,8.48c0,3.08,0.64,5.52,1.93,7.34c1.42,2.02,3.24,3.03,5.46,3.03c1.92,0,3.44-0.66,4.56-1.98
			c1.06-1.16,1.74-2.89,2.03-5.21h2.98c-0.4,2.75-1.39,5.06-2.98,6.95c-1.82,2.15-4.02,3.22-6.6,3.22c-3.14,0-5.71-1.34-7.69-4.02
			c-1.79-2.45-2.68-5.56-2.68-9.33c0-4.13,0.94-7.61,2.83-10.42c1.95-2.91,4.46-4.37,7.54-4.37c2.78,0,5.08,0.99,6.9,2.98
			c1.55,1.79,2.45,4.18,2.68,7.19H1179.35z"/>
		<path d="M1190.46,1093.77c0.83-1.72,2.03-3.24,3.62-4.56c1.42-1.09,3.19-1.64,5.31-1.64c2.05,0,3.79,0.5,5.21,1.49
			c1.62,1.12,2.89,2.7,3.82,4.71c0.92,1.95,1.39,4.63,1.39,8.04c-0.03,2.91-0.41,5.28-1.14,7.09c-0.83,2.12-1.94,3.69-3.32,4.71
			c-1.75,1.39-3.79,2.08-6.1,2.08c-2.08,0-3.94-0.61-5.56-1.83c-1.46-1.06-2.6-2.55-3.42-4.47c-0.89-2.12-1.34-4.73-1.34-7.84
			C1188.92,1098.59,1189.43,1095.99,1190.46,1093.77z M1192.99,1095.06c-0.73,1.65-1.09,3.82-1.09,6.5c0.03,2.58,0.36,4.68,0.99,6.3
			c0.66,1.52,1.51,2.7,2.53,3.52c1.06,0.89,2.33,1.34,3.82,1.34c1.82-0.03,3.29-0.51,4.41-1.44c1.09-0.96,1.88-2.15,2.38-3.57
			c0.53-1.55,0.79-3.52,0.79-5.9c0-2.88-0.35-5.03-1.04-6.45c-0.69-1.55-1.55-2.74-2.58-3.57c-1.13-0.83-2.4-1.24-3.82-1.24
			c-1.59,0-2.89,0.4-3.92,1.19C1194.45,1092.53,1193.62,1093.64,1192.99,1095.06z"/>
		<path d="M1226.49,1098.64c-0.03-3.07-0.21-5.12-0.54-6.15c-0.46-1.29-1.11-1.93-1.93-1.93c-0.76,0-1.4,0.46-1.93,1.39
			c-0.56,0.93-0.96,1.95-1.19,3.07c-0.23,0.99-0.36,2.1-0.4,3.32v17.36h-2.98v-28.13h2.98v2.83c1.32-1.88,2.74-2.83,4.26-2.83
			c0.89,0,1.65,0.35,2.28,1.04c0.76,0.76,1.3,1.7,1.63,2.83c0.06-0.1,0.12-0.16,0.15-0.2c1.35-2.45,2.82-3.67,4.41-3.67
			c1.72,0.03,2.99,0.86,3.81,2.48c0.89,1.69,1.34,4.27,1.34,7.74v17.91h-2.98v-17.91c0-2.08-0.21-3.84-0.64-5.26
			c-0.4-1.32-1.04-1.98-1.92-1.98c-0.72,0.03-1.48,0.86-2.27,2.48c-0.72,1.62-1.08,3.49-1.08,5.6v17.07h-2.98V1098.64z"/>
	</g>
</g>
<g id="レイヤー_1">
	<path class="st2" d="M1096.2,711.36c0.01-0.1,0.13-0.17,0.11-0.29l-0.05-0.13c-0.04-0.09-0.1-0.18-0.16-0.24
		c-0.05-0.07-0.15-0.01-0.22-0.05c-0.1-0.07-0.14-0.19-0.27-0.21c-1.29-0.19-130.63-19.33-233.04-47.33
		c-59.46-16.25-129.86-39.71-154.34-48c1.41-7.39,2.3-15.25,2.37-15.72c0.01-0.1-0.05-0.18-0.07-0.28c0.03-0.14,0.02-0.29-0.04-0.41
		c-0.02-0.05-0.05-0.07-0.09-0.12c-0.04-0.3-0.27-0.57-0.57-0.66c-0.19-0.06-0.39-0.05-0.56,0.02l-2.52-0.96
		c-0.39-0.16-0.85,0.02-1.04,0.4c-0.04,0.11-3.02,6.39-5.88,13.07c-1.92-0.7-4.49-1.64-7.5-2.74c0.46-1.02,0.82-2.04,0.97-3.04
		c0.62-4.19-0.53-9.59-1.87-12.21c-2.73-5.31-9.47-11.05-12.43-16.08c2.56-1.06,4.45-4.24,2.28-6.95c1.82-3.41,3.82-7.98,2.4-12.42
		c-0.59-1.81-3.33-4.33-5.04-6.19c-2.01-2.17-4.2-3.97-5.67-5.29c1.04-2.54,2.8-4.2,2.89-6.93c0.16-6.23-7.23-11.69-9.69-16.02
		c2.29-7.58,8.44-14.17,8.69-22.02c0.13-5.04-2.38-7.4-4.64-10.75c-6.51-9.6-10.6-23.32-18.48-31.73c-1.68-1.79-3.37-3.54-5.38-4.68
		c-1.58-0.9-5.54-1.51-6.93-3.19c-1.48-1.81-1.35-5.68-2.57-7.96c-1.68-3.13-3.81-4.19-5.34-6.5c10.48-3.78,21.54-6.91,31.27-11.5
		c4.75-3.98,1.18-10.22-0.88-15.84c-3.86-10.37-8.05-22.68-12.1-31.59c-1.58-0.72-2.21-3.24-3.9-2.52c0.44-0.45,0.47-1.99,0.05-2.43
		c2.87-1.51-0.48-7.11-1.91-10.08c-3.62-7.45-8.42-16.23-12.3-22.17c-1.15-0.61-2.75-0.74-4.55-0.71
		c-5.67-9.78-10.52-20.3-17.95-28.37c0.52-0.6,1.53-0.68,1.26-2.1c-2.97-5.79-5.88-11.99-9.35-17.84c-1.15-1.9-2.94-3.76-3.53-5.55
		c-0.46-1.33,0.06-2.58-0.22-3.96c-0.92-4.33-3.88-8.32-6.13-11.99c-2.28-3.67-4.74-7.3-7.38-10.5c2.16-1.55,3.47-4.44,3.2-7.23
		c-0.23-2.29-2.8-5.43-4.4-7.7c-4.67-6.56-10.86-14.53-15.38-20.1c-0.68-0.37-1.22-0.81-2.42-0.66c0.97-1.27-0.77-0.83-1.19-1.24
		c-0.82-0.78-1.78-2.22-2.66-3.4c-2.41-3.22-5.09-7.23-7.68-10.51c-0.28-1.27,1.49,0.44,0.63-0.9c-1.92-3.85-4.65-6.89-6.15-11.08
		c5.12-6.94,14.7-12.74,26.12-12.52c3.42,0.07,7.69,1.79,10.05-0.7c-0.71-7.27-3.99-13.95-5.93-21.12
		c-5.85-21.32-7.52-45.48-14.39-66.32c-17.69-3.67-32.15,3.97-42.55,12.47c-5.85,4.77-11.07,9.04-14.93,15.5
		c-0.99-1.03-1.46-2.57-2.67-3.4c1.11-0.66,0.79-1.48,0.97-2.72c0.94-7.2-1.34-15.57-2.58-21.35c3.3-4.87,7.24-11.23,8.02-19.3
		c0.99-10.45-2.47-20.51-7.65-26.02c-0.52,10.03-4.73,16.2-8.7,22.63c-4.89-7.33-10.63-13.84-18.47-18.34
		c-1.93,0.14-3.21-0.3-4.86-0.41c-1.65-1.15-1.31-2.77-2.34-4.31c-0.66-0.98-2.32-1.85-3.58-3.12c-1.27-1.24-2.12-2.91-3.57-3.73
		c-8.74-4.95-27.56-4.37-32.89,1.73c-0.08-9.38,3.04-16.72,7.76-21.43c4.97-5.01,12.54-9.26,22.1-9.26
		c-15.19-1.85-28.38,5.32-37.37,12.28c-8.92,6.88-16.82,17.03-17.99,30.34c-0.2,2.2,0.46,4.7-0.14,6.69
		c-0.6,1.94-3.73,3.57-5.29,5.67c-1.59,2.07-2.82,4.96-3.81,7.22c-2.13,4.8-4.64,10.95-5.23,16.92c-0.16,1.64,0.25,3.78-0.12,5.47
		c-0.42,1.77-2.19,2.64-2.23,4.82c-1.92-0.27-2.89-2.22-4.18-3.44c-4.02-3.79-8.56-7.41-13.76-10.64
		c-6.73-4.18-14.98-8.16-24.77-7.83c-2.61,0.09-4.91,0.88-7.32,0.76c-7.49,20.65-10.71,44.38-17.53,65.63
		c-2.25,6.97-5.24,13.73-6.53,20.85c2.15,2.73,7.06,0.76,11.23,1.15c0.66,1.21-2.23,2.49-1.3,3.93
		c-6.07,7.37-11.11,15.78-14.25,26.16c-2.97,2.78-7.13,7.4-4.85,13.58c1.48,0.59,1.76-0.65,3.36-0.84c5.34-0.7,12.01,0.56,18.24,0.7
		c6.28,0.13,12.33,0.64,16.99,1.89c-13.11,4.91-27.29,7.55-41.31,11.58c-6.53,1.86-11.72,5.17-19.88,5.35
		c-3.88,7.14-7.19,14.9-10.82,22.28c-3.77,0.65-7.41,1.39-10.1,3.13c-0.87,1.35,1.05,0.83,0.26,2.13
		c-1.58,4.99-3.85,9.27-4.58,15.11c-2.57,3.85-5.75,7.05-7.25,12.01c-5.21,5.16-8.48,12.29-11.97,19.21
		c-5.07,1.18-6.15,5.75-8.44,10.77c-3.43,7.45-7.94,15.57-10.83,22.88c-1.25,1.57-3.74,1.77-5.24,3.23
		c-1.45,1.39-2.24,4.08-3.48,6.31c-1.16,2.05-2.47,4.08-3.47,6.01c-2.11,4.01-3.84,8.89-6.65,12.33c-1.14,1.4-3.16,2.21-4.33,3.56
		c-1.43,1.62-2.17,4.08-3.18,6.32c-2.71,5.92-5.91,13.23-8.03,19.6c-2.42,2.81-6.64,2.49-9.23,4.97c-1.81,1.74-3.38,6.06-4.75,9.02
		c-3.03,6.32-5.77,12.47-8.62,18.67c-1.52,3.29-2.52,6.54-4.16,9.34c0.48,1.43,0.67,3.13,1.43,4.29c6.15,0.59,12.01-1.14,17.98-1.74
		c17.86-1.82,35.75-2.8,53.05-5.55c-0.71,6.91-4.31,12.84-4.99,19.97c-0.16,1.59,0.39,3.23,0.2,4.87c-0.4,3.08-2.53,5.62-2.93,8.76
		c-0.21,1.44-0.33,3.26-0.1,4.86c0.13,1.12,0.96,2.23,1.14,3.37c0.35,2.44-0.11,5.32,0.13,7.91c0.14,1.6,0.69,3.11,0.82,4.58
		c0.11,1.85-0.23,3.57-0.12,5.47c0.19,4.16,1.44,8.35,2.16,12.52c2.12,12.29,4.95,24.34,8.06,35.46
		c-16.92-2.77-35.1-4.02-54.59-7.56c-12.85-2.33-26.17-5.58-39.69-7.54c-4.57-0.66-9.24-1.64-13.35-1.5
		c-2.51,0.1-3.23,3.05-4.68,5.68c-0.79,1.4-1.87,3.26-1.35,6.06c2.39,4.31,7.3,5.86,11.7,7.55c4.53,1.77,9.15,3.72,13.88,5.47
		c4.75,1.77,10.42,2.35,15.74,3.68c5.09,1.27,10,3.08,14.81,4.27c20.88,5.11,42.4,9.63,63.89,13.24c1.22,3.57,0.52,9.01,1.86,12.51
		c-3.31,1.83-2.14,9.91,0.98,10.97c-2.2,3.17-1.44,9.12-2.12,13.95c-0.6,4.14-2.05,8.02,0.67,10.96
		c1.83,10.58-2.11,28.68,2.23,37.77c1.53,3.23,4.68,6.16,7.12,8.37c2.64,2.39,5.55,4.76,8.99,6.28c-0.91,3.28-2.77,6.2-4.16,9.34
		c-1.36,3.04-3.28,6.37-3.86,9.65c-0.29,1.54,0.31,3.08-0.1,4.56c-0.44,1.56-2.14,2.69-2.83,4.2c-1.54,3.31-1.97,7.82-2.99,11.8
		c-0.5,1.92-1.2,3.88-1.64,5.74c-0.53,2.07-0.57,4.1-1.04,6.06c-0.86,3.51-3.33,6.52-2.35,10.29c-0.68,1.18-2.74,2.53-2.21,3.91
		c0.39,2.16,2.52,0.91,3.6,2.51c5.65,1.14,10.89,2.67,17.27,3.11c-0.9,0.74,0.16,0.92,0.27,1.53c0.18,1.02-0.83,3.51-1.33,5.45
		c-0.66,2.55-1.41,5.2-2,7.87c-1.76,7.64-3.58,15.89-5.66,23c-0.71,2.34-1.37,4.61-1.97,6.96c-2.18,8.32-2.73,17.25-4.21,26.07
		c-6.48,5.29-12.94,9.94-19.51,16.01c-2.69,2.48-6.19,5.14-9.01,8.93c-2.25,2.97-5.42,9.34-3.94,13.3c0.6,1.63,5.4,4.55,7.47,6.24
		c7.4,6.12,14.5,12.99,21.19,19.01c9.75,8.8,20.01,17.16,25.87,27.63c-0.71,2.27-0.19,4.15-0.43,6.08
		c-0.48,3.31-2.86,5.89-1.13,10.32c-3.87,8.92-5.74,19.22-7.94,29.64c-2.2,10.32-5.01,20.98-5.25,32.13
		c-0.28,12.87,2.13,24.94,4.38,36.6c2.26,11.73,4.25,23.03,7.5,33.32c-1.49,2.04-1.91,6.32,0.76,7.32
		c-1.57,5.79-0.38,13.07-1.34,19.74c-0.15,0.96-0.75,1.66-0.97,2.72c-0.47,2.02-0.09,4.41-0.44,6.38c-0.23,1.19-0.89,2.56-1.3,3.93
		c-0.93,3.05-0.82,4.97-3.16,5.41c0.29,3.1-2.39,3.65-3.17,6.01c-0.84,2.44,0.3,4.93-0.48,8.2c-0.36,1.41-1.78,2.47-2.52,3.9
		c-1.24,2.33-1.93,4.98-3.2,7.54c-3.39,6.7-7.19,13.74-11.09,20.75c-2.27,4.03-5.12,8.28-6.4,14.77
		c-0.99,4.92-3.42,15.39-1.01,18.53c0.81,1.08,2.94,1.21,4.52,1.92c1.98,0.91,3.32,2.4,4.5,2.84c3.07,1.13,7.58,1.33,11.52,1.77
		c11.63,1.31,22.63,2.77,34.89,4.4c15.26,2.03,34.55,3.25,45.1-3.59c5.32-3.49,7.51-9.9,7.1-19.01
		c-0.64-13.93-7.56-25.61-11.97-37.67c1.37-3.37,1.35-6.11,0.5-9.11c-0.5-1.73-1.73-3.13-2.03-4.61c-0.51-2.32,0.6-4.4-0.77-6.41
		c2.35-5.7-2.29-9.02-3.98-12.86c-1.79-3.99-1.42-8.17-2.76-13.14c0.39-1.79-1.8-1.05-2.08-2.17c0.81-4.9-1.19-9.28-1.83-13.73
		c2.6,0.64,4.55-2.87,3.47-6.01c0.21-1.29,1.73-1.41,2.2-3.3c0.61-2.62-0.31-7-2.29-6.74c1.59-10,3.08-18.34,5.74-26.34
		c2.6-7.93,6.75-14.53,9.9-21.99c4.91-11.68,7.81-23.84,9.05-39.04c0.49-6.13,0.29-13.63,1.34-19.74c1.88-1.38,5.02-2.38,5.59-5.36
		c0.46-2.42-0.72-5.11-1.67-7.34c4.56-7.03,10.09-13.07,15.62-19.13c13.4-0.8,28.61,0.24,38.12-4.66
		c11.35-12.79,28.73-19.31,41.42-30.74c1.82,3.59,1.42,7.28,3.43,10.11c1.26,1.78,4.37,3.08,6.9,4.41c2.48,1.29,5.18,2.78,7.52,3.81
		c5.47,2.45,11.63,3.5,15.36,7.02c-0.44,3.95-3.86,8.61-0.56,11.85c-0.12,6.87,0.21,12.68,0.51,18.87c0.08,2.01-0.3,4.46,0.17,6.09
		c0.52,1.91,2.91,3.64,4.75,5.58c1.88,2.02,3.31,4.23,4.44,5.87c3.22,4.71,4.24,9.07,7.32,13.24c0.18,2.29,1.07,4.18,1.38,6.42
		c0.3,2.31-0.26,4.86,0.45,7.31c0.92,3.31,4.95,6.77,6.77,10.49c1,2.07,1.46,4.16,1.99,6.43c0.51,2.26,0.52,5.26,1.37,7.02
		c0.75,1.61,2.94,2.55,3.87,4.04c2.35,3.78,2.59,7.87,4.62,11.35c-1.01,1.96-1.68,3.87-1.04,6.06c0.61,2.14,2.19,3.09,4.49,3.44
		c0.97,4.51,2.09,8.89,5.54,11.07c2.1,2.76,2.04,7.55,3.41,11.03c-0.07,4.33,0.3,8.22,1.58,11.29c-1.95,0.87-4.67,2.51-4.97,5.06
		c-0.21,1.59,0.87,2.99,1.42,4.59c-2.75,7.7-5.25,16.79-6.66,26.93c-0.48,3.44-1.16,7.96-0.22,10.34c0.6,1.56,4.23,3.74,6.3,4.09
		c1.49,0.26,3.02-0.29,4.57-0.2c3.49,0.2,8.23,1.39,12.73,1.79c4.81,0.43,9.8,0.52,13.05,1.5c2.62,0.79,4.87,2.31,7.54,3.2
		c3.9,1.33,7.76,2.2,12.1,3c3.05,0.57,6.21,2.13,9.38,2.33c0.79,0.04,1.66-0.34,2.44-0.25c1.84,0.22,3.72,1.32,5.74,1.64
		c2.68,0.44,5.66-0.41,7.27,1.37c21.69,2.85,52.12,3.43,73,0.05c3.03-0.49,6.43-0.72,8.86-1.94c0.26-0.15,0.3-0.71,0.63-0.9
		c0.69-0.42,1.79-0.7,2.16-1.47c0.77-1.66,0.02-4.46-0.15-7c-0.2-2.62-0.32-5.11-0.76-7.02c-1.95-8.28-8.63-12.53-13.92-17.33
		c-2.71-2.44-4.9-5.51-7.74-7.77c-7.93-6.28-21.12-8.11-32.3-11.34c-0.42-0.64,1.16-1.88,0.69-3.63c-2.01-1.97-4.98-2.97-7.82-4.13
		c-0.45-3.86-5.87-6.59-9.9-6.29c-2.99,0.21-4.82,2.71-6.48,4.12c-4.56-7.15-12.9-10.7-21.61-13.85c-0.63-3.69-1.73-6.9-5.31-7.72
		c0.26-1.37-0.52-1.71-1.48-1.86c-0.33-3.38-0.74-6.63-1-10.06c0.91-0.97,2.38-0.94,3.39-2.06c0.91-1,1.64-3.21,1.62-4.53
		c-0.06-1.63-0.91-2.18-1.44-3.68c-0.15-1.45-0.97-2.28-1.45-3.38c-1.43-0.49-2.32-0.71-3.95-0.39c0.9-17.12,1.05-34.6,1.41-51.68
		c0.37-17.03-1.83-33.02-2.92-48.13c2.21,0.79,4.06-0.09,6.12-1.69c2.96-2.32,2.44-3.88-0.47-6.4c-1.22-1.07-2.75-1.94-4.21-2.22
		c1.05-4.03,0.03-8.29-4.39-8c-2.68-6.19,3.44-10.37,7.91-14.43c7.24-6.61,12.78-10.58,20.73-16.29c3.76-2.68,8.35-5.37,9.92-8.61
		c1.01-2.13,1.59-5.44,2.31-8.16c3.54-13.79,7.9-25.81,11.8-39.59c1.54-5.47,3.76-11.96,3.12-17.58c-0.54-4.5-3.58-9.46-5.18-13.8
		c-1.77-4.73-3.15-9.27-4.25-14.69c12.04-2.13,23.23-5.18,33.65-9.01c1.71-2.95,2.04-7.38,2.09-12.12c0.49-0.24,1.9,1.13,3.33,0.99
		c2.45-2.08,9.87-4.1,10.82-7.98c0.45-1.89-0.94-4.73-1.96-7.65c-5.76-16.25-12.06-32.28-17.51-48.44
		c-3.1-9.14-7.84-17.53-11.91-26.11c-2.04-4.25-4.15-8.5-6.11-12.91c-1.94-4.27-3.2-9.22-5.5-13.2c-2.62-4.49-7.54-7.69-10.08-12.38
		c-2.54-4.62-3.97-10.1-6.07-15.03c-0.37-0.87-0.74-1.74-1.11-2.61c8.68,3.79,17.16,7.41,23.73,10.06c2.74,1.1,5.8,2.31,9.09,3.58
		c-0.1,1.19,0.3,2.51,0.22,3.65c-0.29,4.02-2.63,7.83-1.79,12.43c1.9,2.29,4.86,5,9.04,4.15c4.88,4.01,11.8,5.35,20.58,5.01
		c2.99,3.69,12.66,5.39,13.42-1.54c4.93,0.38,7.59-1.77,9.32-4.99c1.38,0.49,2.67,0.96,3.86,1.38l0.01-0.01l5.02,1.8
		c-1.05,4.67-1.94,9.04-2.28,10.79l-0.23,0.64c-0.13,0.39,0.02,0.83,0.39,1.04l2.27,1.32c0.09,0.2,0.25,0.39,0.47,0.48
		c0.18,0.07,0.36,0.08,0.52,0.03c0.36,0.12,0.74-0.01,0.94-0.34c0.24-0.4,4.04-6.81,7.32-13.39c26.16,8.12,98.47,30.46,138.5,42.11
		c6.55,1.9,13.12,3.73,19.66,5.5c0.33,0.1,0.66,0.18,0.98,0.28c1.11,0.29,2.21,0.58,3.31,0.88c0.97,0.26,1.94,0.52,2.91,0.76
		c0.54,0.15,1.08,0.29,1.61,0.42c97.88,25.76,189.6,36.86,208.4,38.98c0.04,0,0.07-0.01,0.08-0.02c2.59,0.3,4.04,0.44,4.16,0.47
		c0.21,0.02,0.42-0.04,0.58-0.16l13.76-10.37c0.01-0.01,0.01-0.01,0.01-0.03c0.06-0.02,0.11-0.07,0.15-0.12
		C1096.25,711.69,1096.18,711.52,1096.2,711.36z M329.46,521.41c-6.72-2.27-9.88,4.33-8.12,9.86c-1.47-0.13-1.51,1.82-0.66,2.42
		c-3.7,1.21-6.14,3.75-5.97,9c-4.24,2.62-7.96,5.79-11.75,8.87c-2.23-0.1-5.01,0.73-6.99-0.15c0.82-7.33,0.46-13.43,0.12-19.77
		c-0.17-2.82-0.79-6.02-0.12-8.52c0.53-2.02,3.44-4.56,5.33-7.19c2.87-3.99,6.11-7.25,6.36-12.94c0.31-7.45-2.28-13.99-3.79-21.68
		c1.56-4.1,4.36-7.18,5.12-12.06c0.53-3.49-1.07-6.64-1.01-9.76c0.01-0.61,0.43-2.09,0.68-3.33c0.6-3.08,1.52-4.58,2.27-6.64
		c0.4-1.16,0.33-2.27,0.67-3.03c1.25-2.84,5.86-3.85,8.33-5.3c1.09,28.24,5.29,53.47,14.22,74.22
		C330.95,515.74,329.02,518.29,329.46,521.41z M586.5,565.39c-1.11-3.52-2.15-7.06-3.46-10.54c2.56,0.99,3.24,3.85,5.67,4.99
		c0.28,0.92-0.69,0.52-1.23,0.58c2.63,0.51,4.93,2.13,7.85,2.9c3.05,0.8,6.17,0.64,9.41,1.12c2.58,0.36,5.1,2.06,7.57,1.38
		c1.59,1.35,3.11,2.78,5.4,3.46c2.25,3.88,5.61,6.71,9.85,8.73c0.23,1.54,0.29,3.26,0.41,4.92
		C614.19,577.21,598.73,570.63,586.5,565.39z"/>
</g>
</svg>
